<svg id="レイヤー_1" data-name="レイヤー 1" xmlns="http://www.w3.org/2000/svg" xmlns:xlink="http://www.w3.org/1999/xlink" viewBox="0 0 510 820"><defs><style>.cls-1{fill:none;}.cls-2{clip-path:url(#clip-path);}.cls-3{fill:rgba(255,255,255, .95);}</style><clipPath id="clip-path"><rect class="cls-1" x="-197.92" y="-246.92" width="4000" height="3000"/></clipPath></defs><title>アートボード 3</title><g class="cls-2"><path class="cls-3" d="M255.82,506.21A248.23,248.23,0,0,1,80.29,82.45,248.23,248.23,0,1,1,431.35,433.5a246.6,246.6,0,0,1-175.53,72.71m0-481.65A233.42,233.42,0,0,0,90.77,423,233.42,233.42,0,1,0,420.87,92.92a231.91,231.91,0,0,0-165-68.36"/><path class="cls-3" d="M248.08,222.46l3.75-11a88.68,88.68,0,0,1,160.24-16.43l5.9,10Zm87.6-56.1a72.48,72.48,0,0,0-7.48.38,74.15,74.15,0,0,0-57.51,38.51l121.65-12.48a74.22,74.22,0,0,0-56.66-26.41"/><path class="cls-3" d="M128.27,316.8l-2.75-11.24A88.7,88.7,0,0,1,251.6,205.3l10.34,5.21Zm83.24-106.18a73.31,73.31,0,0,0-45.81,16A74.1,74.1,0,0,0,138,290.11L233.74,214l-1.39-.42a75,75,0,0,0-20.84-3"/><path class="cls-3" d="M253.27,221.16l-5.83-10a88.69,88.69,0,0,1,92.48-131.9l11.39,2.07Zm70.9-128.49A73.84,73.84,0,0,0,255.05,192.8l70.2-100.12h-1.08"/><path class="cls-3" d="M244.59,218.51,243,211.27A73.86,73.86,0,0,0,119.9,173.83l109.41,23.72L226.17,212,93.06,183.18l7-9.25a88.69,88.69,0,0,1,157.43,34.13l1.61,7.23Z"/><path class="cls-3" d="M379.63,322.25l-136.26-103,10.21-5.46A88.68,88.68,0,0,1,382.1,310.94Zm-108-100.16,97.57,73.72a73.85,73.85,0,0,0-97.57-73.72"/><path class="cls-3" d="M287,460.86l-4.47-5.92a280.71,280.71,0,0,1-57-170.42,283.86,283.86,0,0,1,9.31-72.27l1.89-7.17L251,208.86,249.13,216a269.36,269.36,0,0,0-8.82,68.5,266,266,0,0,0,54,161.5l4.47,5.91Z"/><path class="cls-3" d="M345.8,451.47l-5.38-5.1A282.41,282.41,0,0,1,252,240.76c0-8.58.39-17.24,1.16-25.75l.66-7.38L268.53,209l-.66,7.37c-.73,8.07-1.1,16.28-1.1,24.42a267.61,267.61,0,0,0,83.84,194.85l5.38,5.1Z"/><path class="cls-3" d="M396.64,496.24a197.91,197.91,0,0,1-146.11-64.17l0,0A183.66,183.66,0,0,0,19.21,399.34L11.47,386.7a198.29,198.29,0,0,1,249.64,35.06l0,0a183.67,183.67,0,0,0,231.61,32.56l7.77,12.62a198,198,0,0,1-103.89,29.34"/><path class="cls-3" d="M49.3,710.46q-.69,6.09-3.12,8.46c-1.63,1.58-4.2,2.38-7.72,2.38-3.79,0-6.62-1.11-8.47-3.32s-2.91-5.81-3.18-10.77l-1.76-31.43v-2.44q0-6.5,2.5-9.21t8.33-2.71q8.13,0,11.65,11.65a53.21,53.21,0,0,0,3.12,8.81,32.48,32.48,0,0,0,15,14.63q10.23,5.15,24.45,5.14,17.48,0,28.38-8.26t10.9-21.13q0-10.69-6.7-17.21t-19.58-8.39L83,644Q55,640,42.12,629.18T29.25,598.7q0-20.73,17.13-34.81T89.12,549.8a68.4,68.4,0,0,1,15.71,2,134.07,134.07,0,0,1,18.7,6.17q.27-3.93,2.17-5.42t6.5-1.49c4,0,6.73.59,8.26,1.76s2.48,4,2.85,8.4l1.89,28.31v1.35a9.82,9.82,0,0,1-2.71,7.39q-2.7,2.64-7.58,2.64-7.18,0-11.11-10a37.71,37.71,0,0,0-3.79-8.53,28.66,28.66,0,0,0-12.87-10.43A47.39,47.39,0,0,0,88,568.22q-16.4,0-26.62,8.13a25.88,25.88,0,0,0-10.23,21.27q0,10.29,7.66,16.25T82.21,622l21.68,2.71q23.56,3.12,35.49,14.43t11.92,30.54q0,22.77-16.93,36.51T89.12,719.94a83.18,83.18,0,0,1-19.37-2.3,116.42,116.42,0,0,1-20.45-7.18"/><path class="cls-3" d="M219.21,696.1h9.08q8,0,11.24,2.17c2.17,1.44,3.25,3.84,3.25,7.18q0,5.41-2.84,7.58T229.1,715.2H182.77c-3.07,0-5.4-.83-7-2.51s-2.37-4.08-2.37-7.24c0-3.34.88-5.74,2.65-7.18s4.76-2.17,9-2.17h13V574.05h-8.67c-6.87,0-11.24-.7-13.14-2.1s-2.85-4-2.85-7.66q0-4.74,2.37-7.24t7-2.51H229.1q8,0,10.84,2.17t2.84,7.58q0,5.43-3.66,7.59t-13.81,2.17h-6.1v55.13l56.49-55.13h-4.61q-6.63,0-9.62-2.31c-2-1.53-3-4-3-7.45s.77-6,2.31-7.51,4-2.24,7.45-2.24h40q4.6,0,7,2.51t2.44,7.24c0,3.53-1.06,6-3.18,7.52s-5.89,2.24-11.31,2.24h-1.9l-52.42,50.66q11.78,2.44,22.75,15.17t34.14,56.22h2.44q8.4,0,11.24,2c1.9,1.36,2.85,3.79,2.85,7.32q0,4.74-2.37,7.24c-1.58,1.68-3.91,2.51-7,2.51H300a15.46,15.46,0,0,1-6.3-1c-1.31-.63-2.64-2.08-4-4.33q-1.22-1.9-15-27.5l-5.29-9.89q-8.54-15.85-17.07-23.78t-18.15-9.28l-14.9,14.09Z"/><path class="cls-3" d="M443,696.1q10.43,0,13.34,2t2.91,7.39q0,5.55-2.91,7.65t-11.72,2.1H380.3q-8.81,0-11.65-2.1t-2.85-7.65q0-5.43,3.19-7.39t13.21-2h19.64v-45l-45.11-77.07h-2.3q-8.13,0-11.11-2.17t-3-7.59q0-5,2.5-7.38t7.79-2.37h37.12q8,0,10.77,2.17t2.78,7.58q0,5.43-3.32,7.59t-12.13,2.17h-4.47l32.78,58.79,34-58.79h-5.56q-7.31,0-10.16-2.17t-2.84-7.59q0-5.68,2.44-7.72t12.32-2H469.3q10.29,0,13.21,2.1t2.91,7.65q0,5.43-2.91,7.59t-11,2.17H469.3l-46.06,79V696.1Z"/><path class="cls-3" d="M32.34,811.81h4.79a5.34,5.34,0,0,1,2.95.61,2.3,2.3,0,0,1,.88,2,2.51,2.51,0,0,1-.82,2.17,7.18,7.18,0,0,1-3.62.59H25.14a2.81,2.81,0,0,1-2.07-.69,2.81,2.81,0,0,1-.68-2.07,2.41,2.41,0,0,1,.78-2.09,5.76,5.76,0,0,1,3-.55h.72V777.29H26a10.28,10.28,0,0,1-4.35-.61,2.61,2.61,0,0,1-.15-4.19,5.9,5.9,0,0,1,3.16-.64c1-.05,1.78-.07,2.29-.07h3.6a5.43,5.43,0,0,1,2.48.4,5.75,5.75,0,0,1,1.66,2.05L54,807.56V777.29H49.77a5.22,5.22,0,0,1-3-.67,2.36,2.36,0,0,1-.94-2.08,2.56,2.56,0,0,1,.8-2.17,6.4,6.4,0,0,1,3.37-.59H61a2.75,2.75,0,0,1,2,.69,2.89,2.89,0,0,1,.67,2.07,2.5,2.5,0,0,1-.83,2.14,5.29,5.29,0,0,1-3,.61h-.46v38.58a1.87,1.87,0,0,1-.52,1.53,4.31,4.31,0,0,1-2.39.42,7.27,7.27,0,0,1-2.32-.21,6.13,6.13,0,0,1-1.48-2L32.34,780.51Z"/><path class="cls-3" d="M96.53,812.34a22.89,22.89,0,0,1-6.84,4.33,20,20,0,0,1-7.6,1.5A13.2,13.2,0,0,1,72.87,815a10.68,10.68,0,0,1-3.5-8.28A10.87,10.87,0,0,1,74,797.33Q78.69,794,87.1,794a36,36,0,0,1,4.49.28,38.87,38.87,0,0,1,4.63.9v-.26q0-4.41-2.11-6.52t-6.55-2.1a16.7,16.7,0,0,0-6.66,1.61,16.22,16.22,0,0,1-4.87,1.6,2.28,2.28,0,0,1-1.84-.9,3.58,3.58,0,0,1-.72-2.31q0-2.26,4.23-3.83a31.46,31.46,0,0,1,10.82-1.57q6.75,0,10.19,3.42t3.45,10.14v17.35H104a7.79,7.79,0,0,1,3.64.57,2.27,2.27,0,0,1,.92,2.07,2.65,2.65,0,0,1-.77,2.07,3.35,3.35,0,0,1-2.3.69h-6a2.49,2.49,0,0,1-1.77-.65,3.38,3.38,0,0,1-.92-1.88Zm-.31-12.06a27.65,27.65,0,0,0-4.08-1,24.77,24.77,0,0,0-3.92-.32q-5.91,0-9.31,2c-2.28,1.33-3.41,3.12-3.41,5.36a5.25,5.25,0,0,0,2.12,4.29A8.44,8.44,0,0,0,83,812.27a16.91,16.91,0,0,0,9-2.55c2.78-1.7,4.16-3.47,4.16-5.3Z"/><path class="cls-3" d="M137.35,811.8h12.29a3.28,3.28,0,0,1,2.21.64,2.57,2.57,0,0,1,.7,2,2.78,2.78,0,0,1-.67,2.16,3.77,3.77,0,0,1-2.47.6H119.72a3.32,3.32,0,0,1-2.29-.69,2.65,2.65,0,0,1-.77-2.07,2.41,2.41,0,0,1,.8-2,3.78,3.78,0,0,1,2.42-.66h11.68V787.21h-7.49a3.61,3.61,0,0,1-2.41-.7,2.53,2.53,0,0,1-.82-2,2.49,2.49,0,0,1,.76-2,3.4,3.4,0,0,1,2.3-.67h11.22a2.77,2.77,0,0,1,1.63.42,1.34,1.34,0,0,1,.6,1.15Zm-7.09-41c0-2.76.25-4.5.75-5.21s1.56-1.07,3.19-1.07,2.64.3,3.15.9.76,2,.76,4.27-.23,3.55-.71,4.08-1.54.78-3.2.78-2.7-.24-3.19-.73-.75-1.49-.75-3"/><path class="cls-3" d="M175.78,772.58h-6.51c-2.48,0-4-.2-4.66-.6a2.35,2.35,0,0,1-.94-2.16,2.59,2.59,0,0,1,.79-2.07,3.34,3.34,0,0,1,2.28-.69h12.64a2.7,2.7,0,0,1,1.61.42,1.37,1.37,0,0,1,.57,1.15V811.8h12a3,3,0,0,1,2.13.64,2.67,2.67,0,0,1,.67,2,2.86,2.86,0,0,1-.65,2.16,3.74,3.74,0,0,1-2.46.6H165a3.38,3.38,0,0,1-2.28-.69,2.62,2.62,0,0,1-.78-2.07,2.41,2.41,0,0,1,.8-2,3.76,3.76,0,0,1,2.42-.66h10.61Z"/><path class="cls-3" d="M264.46,815.87a3.9,3.9,0,0,1-.89,2.39,3,3,0,0,1-2.18.67A2.92,2.92,0,0,1,259,818a5.08,5.08,0,0,1-.9-3l-.5-8.89v-.69a3.76,3.76,0,0,1,.71-2.6,3.07,3.07,0,0,1,2.35-.77q2.29,0,3.3,3.3a14.79,14.79,0,0,0,.88,2.49,9.16,9.16,0,0,0,4.23,4.13,15.23,15.23,0,0,0,6.92,1.46,12.9,12.9,0,0,0,8-2.34,7.18,7.18,0,0,0,3.08-6,6.49,6.49,0,0,0-1.89-4.87,9.73,9.73,0,0,0-5.54-2.37l-5.67-.77q-7.92-1.11-11.57-4.18t-3.63-8.61a12.28,12.28,0,0,1,4.84-9.85,18.38,18.38,0,0,1,12.09-4,19.24,19.24,0,0,1,4.44.55,38,38,0,0,1,5.29,1.74,2,2,0,0,1,.61-1.53,3.06,3.06,0,0,1,1.84-.42,4.06,4.06,0,0,1,2.34.5,3.38,3.38,0,0,1,.8,2.37l.54,8V782a2.79,2.79,0,0,1-.77,2.09,2.94,2.94,0,0,1-2.14.75c-1.36,0-2.41-1-3.15-2.84a10.19,10.19,0,0,0-1.07-2.41,8.08,8.08,0,0,0-3.64-3,13.37,13.37,0,0,0-5.4-1,11.76,11.76,0,0,0-7.53,2.29,7.33,7.33,0,0,0-2.89,6,5.51,5.51,0,0,0,2.17,4.6,13.8,13.8,0,0,0,6.6,2.29l6.13.77q6.67.89,10,4.08a11.33,11.33,0,0,1,3.37,8.64,12.63,12.63,0,0,1-4.79,10.32q-4.78,3.89-12.79,3.89a23.66,23.66,0,0,1-5.48-.65,33.21,33.21,0,0,1-5.78-2"/><path class="cls-3" d="M329.2,812.34a22.65,22.65,0,0,1-6.84,4.33,20,20,0,0,1-7.6,1.5,13.16,13.16,0,0,1-9.21-3.18,10.65,10.65,0,0,1-3.51-8.28,10.87,10.87,0,0,1,4.65-9.38q4.67-3.33,13.09-3.33a35.8,35.8,0,0,1,4.48.28,38.49,38.49,0,0,1,4.63.9v-.26q0-4.41-2.1-6.52t-6.55-2.1a16.7,16.7,0,0,0-6.67,1.61,16.28,16.28,0,0,1-4.86,1.6,2.25,2.25,0,0,1-1.84-.9,3.53,3.53,0,0,1-.73-2.31q0-2.26,4.23-3.83a31.46,31.46,0,0,1,10.82-1.57q6.75,0,10.19,3.42t3.45,10.14v17.35h1.88a7.79,7.79,0,0,1,3.64.57,2.27,2.27,0,0,1,.92,2.07,2.65,2.65,0,0,1-.77,2.07,3.35,3.35,0,0,1-2.3.69h-6a2.47,2.47,0,0,1-1.76-.65,3.31,3.31,0,0,1-.92-1.88Zm-.31-12.06a27.65,27.65,0,0,0-4.08-1,24.77,24.77,0,0,0-3.92-.32q-5.91,0-9.31,2t-3.41,5.36a5.23,5.23,0,0,0,2.13,4.29,8.4,8.4,0,0,0,5.42,1.69,16.94,16.94,0,0,0,9-2.55q4.15-2.55,4.15-5.3Z"/><path class="cls-3" d="M363.51,772.58H357c-2.47,0-4-.2-4.65-.6a2.33,2.33,0,0,1-.94-2.16,2.59,2.59,0,0,1,.79-2.07,3.33,3.33,0,0,1,2.27-.69h12.65a2.7,2.7,0,0,1,1.61.42,1.37,1.37,0,0,1,.57,1.15V811.8h12a3,3,0,0,1,2.12.64,2.64,2.64,0,0,1,.67,2,2.82,2.82,0,0,1-.65,2.16,3.69,3.69,0,0,1-2.45.6H352.74a3.36,3.36,0,0,1-2.28-.69,2.62,2.62,0,0,1-.78-2.07,2.41,2.41,0,0,1,.8-2,3.74,3.74,0,0,1,2.41-.66h10.62Z"/><path class="cls-3" d="M430,799.55A17.52,17.52,0,0,1,424.38,813q-5.6,5.2-14.52,5.21T395.38,813a18.83,18.83,0,0,1,0-26.8Q401,781,409.86,781t14.5,5.21A17.44,17.44,0,0,1,430,799.55m-20.11,13.22a13.17,13.17,0,0,0,9.67-3.73,13.89,13.89,0,0,0,0-19,14.22,14.22,0,0,0-19.29,0,14,14,0,0,0,0,19.07,13.18,13.18,0,0,0,9.66,3.71"/><path class="cls-3" d="M441.27,811.81V787.25h-.72a7.33,7.33,0,0,1-3.59-.61,2.32,2.32,0,0,1-1-2.14,2.46,2.46,0,0,1,.8-2,4.21,4.21,0,0,1,2.61-.64h5.47a2.61,2.61,0,0,1,1.61.43,1.33,1.33,0,0,1,.58,1.14V786a21,21,0,0,1,5.53-3.85,13.65,13.65,0,0,1,5.69-1.25,11.76,11.76,0,0,1,9.1,3.61q3.31,3.6,3.31,10v17.35h1.82a4.72,4.72,0,0,1,2.77.63,2.33,2.33,0,0,1,.85,2,2.42,2.42,0,0,1-.9,2.13,5.91,5.91,0,0,1-3.21.63h-8.48a5.59,5.59,0,0,1-3.15-.57,2.78,2.78,0,0,1-.69-2.19,2.39,2.39,0,0,1,.81-2.07,5.71,5.71,0,0,1,3.05-.57h1.35V795.87q0-4.47-2-6.83a7.34,7.34,0,0,0-5.91-2.36,10.15,10.15,0,0,0-6.91,2.64,8.41,8.41,0,0,0-3,6.55v15.94h1.34a5.8,5.8,0,0,1,3.1.57,2.39,2.39,0,0,1,.81,2.07,2.78,2.78,0,0,1-.69,2.19c-.46.38-1.59.57-3.37.57H439.2a3.52,3.52,0,0,1-2.35-.67,2.61,2.61,0,0,1-.79-2.09,2.26,2.26,0,0,1,.9-2.09,7.48,7.48,0,0,1,3.51-.55Z"/></g></svg>
