<svg id="レイヤー_1" data-name="レイヤー 1" xmlns="http://www.w3.org/2000/svg" xmlns:xlink="http://www.w3.org/1999/xlink" viewBox="0 0 870 320"><defs><style>.cls-1{fill:none;}.cls-2{clip-path:url(#clip-path);fill:#004c84;}</style><clipPath id="clip-path"><rect class="cls-1" x="-1973.48" y="-261.62" width="4000" height="3000"/></clipPath></defs><title>アートボード 1</title><g class="cls-2"><path d="M162.93,318.65A156.75,156.75,0,0,1,52.09,51.06,156.75,156.75,0,0,1,273.77,272.74a155.71,155.71,0,0,1-110.84,45.91m0-304.14A147.39,147.39,0,0,0,58.7,266.12,147.39,147.39,0,1,0,267.15,57.68,146.42,146.42,0,0,0,162.93,14.51"/><path d="M158,139.47l2.37-6.92a56,56,0,0,1,101.18-10.38l3.73,6.29ZM213.36,104a46.56,46.56,0,0,0-41,24.55l76.81-7.88A46.87,46.87,0,0,0,213.36,104"/><path d="M82.39,199l-1.73-7.1a56,56,0,0,1,60.41-69,55.84,55.84,0,0,1,19.2,5.67l6.53,3.29ZM135,132A46.32,46.32,0,0,0,106,142.12a46.83,46.83,0,0,0-17.47,40.06L149,134.13c-.29-.1-.58-.19-.88-.27a47.8,47.8,0,0,0-8.05-1.6A48.55,48.55,0,0,0,135,132"/><path d="M161.32,138.66l-3.68-6.32A56,56,0,0,1,216,49.05l7.19,1.31ZM206.1,57.52a46.62,46.62,0,0,0-43.65,63.23l44.33-63.23h-.68"/><path d="M155.84,137l-1-4.57A46.63,46.63,0,0,0,77.1,108.77l69.09,15-2,9.15L60.15,114.67l4.4-5.84A56,56,0,0,1,164,130.38l1,4.57Z"/><path d="M241.11,202.49l-86-65,6.44-3.45a56,56,0,0,1,81.16,61.32Zm-68.18-63.25,61.6,46.55a46.62,46.62,0,0,0-61.6-46.55"/><path d="M182.6,290l-2.82-3.74a177.26,177.26,0,0,1-36-107.62A179.36,179.36,0,0,1,149.65,133l1.2-4.53,9.05,2.39-1.2,4.52a170.22,170.22,0,0,0-5.56,43.25,167.92,167.92,0,0,0,34.11,102l2.82,3.74Z"/><path d="M219.75,284.08l-3.4-3.22A178.35,178.35,0,0,1,160.48,151c0-5.42.25-10.89.74-16.26l.42-4.66L171,131l-.42,4.66c-.46,5.09-.7,10.27-.7,15.41a169,169,0,0,0,52.94,123l3.4,3.22Z"/><path d="M251.86,312.36a125,125,0,0,1-92.27-40.53l0,0a116,116,0,0,0-146-20.69l-4.89-8a125.19,125.19,0,0,1,157.64,22.13l0,0a116,116,0,0,0,146.25,20.56l4.91,8a125,125,0,0,1-65.6,18.53"/><path d="M394.77,200.31q-.74,6.51-3.33,9.05t-8.26,2.53q-6.09,0-9.05-3.55t-3.41-11.51l-1.88-33.6v-2.61q0-6.94,2.68-9.85t8.91-2.89q8.69,0,12.45,12.45a56,56,0,0,0,3.33,9.42,34.7,34.7,0,0,0,16,15.64q10.93,5.51,26.14,5.5,18.69,0,30.34-8.83t11.66-22.6q0-11.43-7.17-18.39t-20.93-9l-21.43-2.9q-30-4.2-43.74-15.78T373.33,80.82q0-22.15,18.32-37.22t45.7-15.06a72.71,72.71,0,0,1,16.8,2.1,141.76,141.76,0,0,1,20,6.59q.3-4.2,2.32-5.8t6.95-1.59q6.38,0,8.84,1.88t3,9l2,30.27v1.45q0,5.07-2.9,7.89t-8.11,2.83q-7.68,0-11.88-10.72a39.46,39.46,0,0,0-4.05-9.12,30.62,30.62,0,0,0-13.76-11.16,50.83,50.83,0,0,0-20.42-3.91q-17.54,0-28.46,8.69a27.69,27.69,0,0,0-10.94,22.74q0,11,8.19,17.38t25,8.69l23.17,2.9q25.2,3.33,37.95,15.42t12.75,32.66q0,24.33-18.11,39t-48.37,14.7A88.69,88.69,0,0,1,416.64,208a124.15,124.15,0,0,1-21.87-7.67"/><path d="M576.43,185h9.7q8.55,0,12,2.31t3.48,7.68c0,3.86-1,6.57-3,8.11s-5.89,2.32-11.59,2.32H537.47c-3.29,0-5.77-.89-7.46-2.68s-2.54-4.37-2.54-7.75q0-5.35,2.83-7.68t9.63-2.31h13.9V54.45h-9.27q-11,0-14-2.24c-2-1.5-3-4.22-3-8.18q0-5.07,2.54-7.75c1.69-1.79,4.17-2.68,7.46-2.68H587q8.55,0,11.59,2.31c2,1.55,3,4.25,3,8.12s-1.31,6.56-3.91,8.11-7.53,2.31-14.78,2.31h-6.51v59l60.39-58.95H631.9c-4.73,0-8.16-.81-10.29-2.46s-3.18-4.29-3.18-8,.82-6.45,2.46-8,4.3-2.39,8-2.39h42.72q4.92,0,7.53,2.68T681.72,44c0,3.76-1.14,6.44-3.4,8s-6.3,2.39-12.1,2.39h-2l-56.05,54.17q12.58,2.61,24.33,16.22T669,185h2.61q9,0,12,2.17c2,1.45,3,4,3,7.82q0,5.07-2.53,7.75t-7.46,2.68h-13.9a16.63,16.63,0,0,1-6.74-1q-2.1-1-4.27-4.64-1.31-2-16.08-29.4L630,159.75q-9.12-17-18.24-25.42t-19.41-9.92l-15.93,15.06Z"/><path d="M815.72,185q11.14,0,14.26,2.1t3.12,7.89q0,5.94-3.12,8.18t-12.53,2.25H748.66q-9.42,0-12.46-2.25c-2-1.49-3-4.22-3-8.18s1.14-6.49,3.41-7.89,7-2.1,14.12-2.1h21V136.86L723.46,54.45H721q-8.7,0-11.88-2.31T705.93,44c0-3.58.9-6.21,2.68-7.9s4.57-2.53,8.33-2.53h39.68q8.55,0,11.52,2.31c2,1.55,3,4.25,3,8.12s-1.19,6.56-3.55,8.11-6.69,2.31-13,2.31h-4.78l35,62.86,36.35-62.86h-5.94q-7.81,0-10.86-2.31t-3-8.11q0-6.09,2.61-8.26t13.17-2.17h26.65q11,0,14.13,2.24T861.05,44q0,5.79-3.11,8.11t-11.81,2.31h-2.32l-49.24,84.44V185Z"/><path d="M380.84,308.67H386a5.78,5.78,0,0,1,3.15.65,2.45,2.45,0,0,1,.94,2.17,2.69,2.69,0,0,1-.88,2.32q-.89.63-3.87.63H373.14a2.61,2.61,0,0,1-2.95-2.95,2.57,2.57,0,0,1,.84-2.23,6.18,6.18,0,0,1,3.25-.59h.78v-36.9h-1a10.92,10.92,0,0,1-4.65-.66,2.38,2.38,0,0,1-1.21-2.29,2.44,2.44,0,0,1,1.05-2.2,6.41,6.41,0,0,1,3.37-.67c1.1-.06,1.92-.08,2.46-.08h3.85a5.69,5.69,0,0,1,2.64.43,6,6,0,0,1,1.78,2.19L404,304.12V271.77h-4.51a5.6,5.6,0,0,1-3.21-.72,2.56,2.56,0,0,1-1-2.23,2.74,2.74,0,0,1,.86-2.32,6.85,6.85,0,0,1,3.61-.63h11.75a2.89,2.89,0,0,1,2.19.74,3,3,0,0,1,.72,2.21,2.67,2.67,0,0,1-.88,2.29,5.66,5.66,0,0,1-3.22.66h-.49V313a2,2,0,0,1-.55,1.64,4.63,4.63,0,0,1-2.56.45,7.77,7.77,0,0,1-2.48-.23,6.41,6.41,0,0,1-1.57-2.11l-21.79-37.55Z"/><path d="M449.46,309.24a24.74,24.74,0,0,1-7.31,4.63,21.56,21.56,0,0,1-8.13,1.59,14.08,14.08,0,0,1-9.85-3.4,11.39,11.39,0,0,1-3.74-8.84,11.62,11.62,0,0,1,5-10q5-3.56,14-3.56a37,37,0,0,1,4.79.31,39,39,0,0,1,5,1v-.29c0-3.14-.76-5.46-2.26-7s-3.83-2.25-7-2.25a18,18,0,0,0-7.13,1.72c-2.62,1.14-4.35,1.72-5.2,1.72a2.4,2.4,0,0,1-2-1,3.79,3.79,0,0,1-.78-2.47q0-2.42,4.52-4.1a33.74,33.74,0,0,1,11.57-1.68q7.22,0,10.9,3.67t3.68,10.83v18.55h2a8.18,8.18,0,0,1,3.89.62,2.4,2.4,0,0,1,1,2.21,2.85,2.85,0,0,1-.82,2.21,3.6,3.6,0,0,1-2.46.74h-6.43a2.59,2.59,0,0,1-1.88-.7,3.55,3.55,0,0,1-1-2Zm-.32-12.9a28.46,28.46,0,0,0-4.37-1.09,25.85,25.85,0,0,0-4.19-.35q-6.31,0-10,2.13T427,302.77a5.61,5.61,0,0,0,2.27,4.58,9,9,0,0,0,5.8,1.81,18.08,18.08,0,0,0,9.64-2.73q4.46-2.71,4.45-5.67Z"/><path d="M493.1,308.66h13.15a3.48,3.48,0,0,1,2.36.68,2.75,2.75,0,0,1,.75,2.15,3,3,0,0,1-.71,2.31,4.1,4.1,0,0,1-2.64.64H474.26a3.55,3.55,0,0,1-2.45-.74,2.81,2.81,0,0,1-.82-2.21,2.55,2.55,0,0,1,.86-2.13,4,4,0,0,1,2.58-.7h12.49V282.37h-8a3.78,3.78,0,0,1-2.56-.76,3.14,3.14,0,0,1-.07-4.31,3.68,3.68,0,0,1,2.46-.71h12a3,3,0,0,1,1.74.45,1.43,1.43,0,0,1,.63,1.23Zm-7.57-43.86c0-2.95.26-4.81.8-5.57s1.67-1.15,3.42-1.15,2.81.32,3.35,1,.82,2.17.82,4.57-.25,3.8-.75,4.36-1.65.84-3.42.84-2.89-.26-3.42-.78-.8-1.59-.8-3.23"/><path d="M534.2,266.73h-7c-2.64,0-4.3-.21-5-.64a2.51,2.51,0,0,1-1-2.31,2.79,2.79,0,0,1,.84-2.21,3.61,3.61,0,0,1,2.44-.74h13.52a2.88,2.88,0,0,1,1.72.45,1.44,1.44,0,0,1,.61,1.23v46.16h12.86a3.21,3.21,0,0,1,2.27.67,2.83,2.83,0,0,1,.72,2.15,3.06,3.06,0,0,1-.7,2.32,4,4,0,0,1-2.62.63H522.69a3.54,3.54,0,0,1-2.44-.74,2.77,2.77,0,0,1-.84-2.21,2.6,2.6,0,0,1,.86-2.13,4.05,4.05,0,0,1,2.58-.69H534.2Z"/><path d="M629,313a4.17,4.17,0,0,1-1,2.56,3.28,3.28,0,0,1-2.33.71,3.14,3.14,0,0,1-2.56-1,5.53,5.53,0,0,1-1-3.26l-.53-9.5v-.74a4.09,4.09,0,0,1,.75-2.78,3.31,3.31,0,0,1,2.52-.82q2.46,0,3.52,3.52a14.8,14.8,0,0,0,.95,2.66,9.76,9.76,0,0,0,4.52,4.43,16.25,16.25,0,0,0,7.39,1.55,13.83,13.83,0,0,0,8.58-2.49,7.7,7.7,0,0,0,3.3-6.39,6.88,6.88,0,0,0-2-5.2,10.37,10.37,0,0,0-5.91-2.54l-6.07-.82q-8.48-1.18-12.36-4.47t-3.9-9.21a13.12,13.12,0,0,1,5.19-10.53,19.66,19.66,0,0,1,12.92-4.26,20.39,20.39,0,0,1,4.75.6,39.26,39.26,0,0,1,5.65,1.86,2.15,2.15,0,0,1,.66-1.64,3.23,3.23,0,0,1,2-.45,4.33,4.33,0,0,1,2.5.53,3.67,3.67,0,0,1,.86,2.54l.57,8.56v.41a2.94,2.94,0,0,1-.82,2.23,3.1,3.1,0,0,1-2.29.8q-2.17,0-3.36-3a11.54,11.54,0,0,0-1.14-2.58,8.68,8.68,0,0,0-3.9-3.15,14.24,14.24,0,0,0-5.77-1.11,12.55,12.55,0,0,0-8.05,2.46,7.82,7.82,0,0,0-3.09,6.43,5.88,5.88,0,0,0,2.31,4.91c1.55,1.21,3.9,2,7.07,2.46l6.55.82q7.13.94,10.73,4.36a12.15,12.15,0,0,1,3.61,9.24,13.51,13.51,0,0,1-5.12,11q-5.13,4.15-13.68,4.15a25.3,25.3,0,0,1-5.86-.69A35.6,35.6,0,0,1,629,313"/><path d="M698.22,309.24a24.61,24.61,0,0,1-7.31,4.63,21.56,21.56,0,0,1-8.13,1.59,14.08,14.08,0,0,1-9.85-3.4,11.39,11.39,0,0,1-3.74-8.84,11.62,11.62,0,0,1,5-10q5-3.56,14-3.56a37,37,0,0,1,4.79.31,39,39,0,0,1,5,1v-.29q0-4.71-2.26-7t-7-2.25a18,18,0,0,0-7.13,1.72c-2.62,1.14-4.35,1.72-5.2,1.72a2.4,2.4,0,0,1-2-1,3.79,3.79,0,0,1-.78-2.47q0-2.42,4.52-4.1a33.74,33.74,0,0,1,11.57-1.68q7.22,0,10.9,3.67t3.69,10.83v18.55h2a8.18,8.18,0,0,1,3.89.62,2.4,2.4,0,0,1,1,2.21,2.85,2.85,0,0,1-.82,2.21,3.6,3.6,0,0,1-2.46.74h-6.43a2.63,2.63,0,0,1-1.89-.7,3.6,3.6,0,0,1-1-2Zm-.32-12.9a28.46,28.46,0,0,0-4.37-1.09,25.85,25.85,0,0,0-4.19-.35q-6.32,0-10,2.13t-3.64,5.74a5.61,5.61,0,0,0,2.27,4.58,9,9,0,0,0,5.8,1.81,18.08,18.08,0,0,0,9.64-2.73q4.45-2.71,4.45-5.67Z"/><path d="M734.91,266.73h-7c-2.64,0-4.3-.21-5-.64a2.51,2.51,0,0,1-1-2.31,2.79,2.79,0,0,1,.84-2.21,3.61,3.61,0,0,1,2.44-.74h13.52a2.88,2.88,0,0,1,1.72.45,1.44,1.44,0,0,1,.61,1.23v46.16H754a3.21,3.21,0,0,1,2.27.67,2.83,2.83,0,0,1,.72,2.15,3.06,3.06,0,0,1-.7,2.32,4,4,0,0,1-2.62.63H723.4a3.54,3.54,0,0,1-2.44-.74,2.77,2.77,0,0,1-.84-2.21,2.6,2.6,0,0,1,.86-2.13,4.05,4.05,0,0,1,2.58-.69h11.35Z"/><path d="M806,295.56a18.72,18.72,0,0,1-6,14.33q-6,5.58-15.52,5.57T769,309.89a20.12,20.12,0,0,1,0-28.65q6-5.55,15.48-5.55t15.5,5.57a18.65,18.65,0,0,1,6,14.3m-21.5,14.13a14.09,14.09,0,0,0,10.34-4,14.86,14.86,0,0,0,0-20.37,15.2,15.2,0,0,0-20.62,0,13.84,13.84,0,0,0-4,10.21,13.68,13.68,0,0,0,4,10.18,14,14,0,0,0,10.32,4"/><path d="M818.06,308.67V282.41h-.78a7.8,7.8,0,0,1-3.83-.65,2.49,2.49,0,0,1-1-2.3,2.63,2.63,0,0,1,.85-2.19,4.58,4.58,0,0,1,2.79-.67h5.86a2.88,2.88,0,0,1,1.72.45,1.44,1.44,0,0,1,.61,1.23v2.78a22.43,22.43,0,0,1,5.92-4.11,14.49,14.49,0,0,1,6.08-1.33q6.18,0,9.73,3.84t3.54,10.65v18.56h1.94a5.09,5.09,0,0,1,3,.67,2.52,2.52,0,0,1,.91,2.15,2.6,2.6,0,0,1-1,2.28,6.3,6.3,0,0,1-3.43.67h-9.07c-1.75,0-2.87-.2-3.37-.61a3,3,0,0,1-.73-2.34,2.55,2.55,0,0,1,.86-2.21,6.08,6.08,0,0,1,3.26-.61h1.45v-17c0-3.2-.73-5.63-2.18-7.31a7.9,7.9,0,0,0-6.32-2.52,10.86,10.86,0,0,0-7.39,2.82,9,9,0,0,0-3.2,7v17h1.43a6.19,6.19,0,0,1,3.32.61,2.53,2.53,0,0,1,.86,2.21,3,3,0,0,1-.73,2.34c-.5.41-1.7.61-3.61.61h-9.67a3.78,3.78,0,0,1-2.51-.72,2.76,2.76,0,0,1-.84-2.23,2.42,2.42,0,0,1,1-2.23,8,8,0,0,1,3.75-.59Z"/></g></svg>
